<svg xmlns="http://www.w3.org/2000/svg" xmlns:xlink="http://www.w3.org/1999/xlink" preserveAspectRatio="xMidYMid" width="500" height="500" viewBox="0 0 500 500">
  <defs>
    <style>

      .cls-2 {
        fill: #737373;
      }
    </style>
  </defs>
  <path d="M250.000,500.000 C112.153,500.000 -0.000,387.847 -0.000,250.000 C-0.000,112.153 112.153,-0.000 250.000,-0.000 C387.847,-0.000 500.000,112.153 500.000,250.000 C500.000,387.847 387.847,500.000 250.000,500.000 ZM250.000,62.500 C146.607,62.500 62.500,146.606 62.500,250.000 C62.500,353.394 146.607,437.500 250.000,437.500 C353.394,437.500 437.500,353.394 437.500,250.000 C437.500,146.606 353.394,62.500 250.000,62.500 ZM240.844,334.594 C234.741,340.697 226.747,343.750 218.750,343.750 C210.753,343.750 202.760,340.697 196.657,334.594 C196.657,334.594 134.156,272.094 134.156,272.094 C121.947,259.887 121.947,240.112 134.156,227.907 C146.363,215.697 166.138,215.697 178.344,227.907 C178.344,227.907 218.750,268.310 218.750,268.310 C218.750,268.310 321.656,165.406 321.656,165.406 C333.863,153.197 353.638,153.197 365.844,165.406 C378.053,177.613 378.053,197.388 365.844,209.594 C365.844,209.594 240.844,334.594 240.844,334.594 Z" id="path-1" class="cls-2" fill-rule="evenodd"/>
</svg>
